<?xml version="1.0" encoding="UTF-8" standalone="no"?>
<!-- Created with Inkscape (http://www.inkscape.org/) -->

<svg
   xmlns:dc="http://purl.org/dc/elements/1.1/"
   xmlns:cc="http://creativecommons.org/ns#"
   xmlns:rdf="http://www.w3.org/1999/02/22-rdf-syntax-ns#"
   xmlns:svg="http://www.w3.org/2000/svg"
   xmlns="http://www.w3.org/2000/svg"
   xmlns:sodipodi="http://sodipodi.sourceforge.net/DTD/sodipodi-0.dtd"
   xmlns:inkscape="http://www.inkscape.org/namespaces/inkscape"
   id="svg59"
   version="1.1"
   viewBox="0 0 210 297"
   height="297mm"
   width="210mm"
   inkscape:version="0.91 r13725"
   sodipodi:docname="temp-inkscape.svg">
  <sodipodi:namedview
     inkscape:window-maximized="0"
     inkscape:window-y="0"
     inkscape:window-x="0"
     inkscape:window-height="800"
     inkscape:window-width="1280"
     showgrid="false"
     inkscape:current-layer="layer1"
     inkscape:document-units="mm"
     inkscape:cy="800"
     inkscape:cx="147.71429"
     inkscape:zoom="1"
     inkscape:pageshadow="2"
     inkscape:pageopacity="0.0"
     borderopacity="1.0"
     bordercolor="#666666"
     pagecolor="#ffffff"
     id="base" />
  <defs
     id="defs53" />
  <metadata
     id="metadata56">
    <rdf:RDF>
      <cc:Work
         rdf:about="">
        <dc:format>image/svg+xml</dc:format>
        <dc:type
           rdf:resource="http://purl.org/dc/dcmitype/StillImage" />
        <dc:title />
      </cc:Work>
    </rdf:RDF>
  </metadata>
  <g
     id="layer1"
     inkscape:groupmode="layer"
     inkscape:label="Layer 1">
    <g
       id="text187"
       style="font-style:normal;font-variant:normal;font-weight:normal;font-stretch:condensed;font-size:21.16666603px;line-height:1.25;font-family:'College Condensed';-inkscape-font-specification:'College Condensed, Condensed';text-align:start;letter-spacing:2.64583325px;word-spacing:0px;writing-mode:lr-tb;text-anchor:start;fill:#000000;fill-opacity:1;stroke:none;stroke-width:0.26458332">
      <path
         d="M180.508312979 81.0989099195C180.446502533 77.8240085256 180.384692088 74.5491071317 180.322881642 71.2742057378C181.315280408 71.5583502903 182.306856131 71.8461114389 183.297607913 72.1374816751C183.017953502 55.7741146825 182.738299091 39.4107476899 182.458644681 23.0473806973C181.438081409 22.7440448202 180.417106639 22.4450838062 179.39572137 22.1504947091C179.333910626 18.8755774719 179.272099881 15.6006602346 179.210289136 12.3257429974C182.290853901 13.2293510017 185.368460667 14.1737640052 188.443098442 15.159131994C191.661984163 29.2379305366 194.82293193 43.3242557697 197.922968958 57.4117665171C197.85449617 47.649450074 197.786023382 37.887133631 197.717550594 28.1248171879C196.703196341 27.7554335657 195.688423871 27.3904774312 194.67323618 27.0299458588C194.643296773 23.7710775726 194.613357366 20.5122092865 194.583417958 17.2533410004C198.670298307 18.741428998 202.751813652 20.3034940011 206.82794 21.939897C206.82794 25.1763007592 206.82794 28.4127045183 206.82794 31.6491082775C205.817352956 31.23971544 204.806343834 30.8347822636 203.794916622 30.4343038368C203.842043266 49.8916561348 203.88916991 69.3490084328 203.936296554 88.8063607308C202.003972164 88.0906860565 200.068001034 87.3881140619 198.128387322 86.6987158462C195.092386182 72.6540230607 191.993253714 58.6056466592 188.833961302 44.5600971908C188.964249132 54.360434727 189.094536962 64.1607722633 189.224824792 73.9611097996C190.20980543 74.2775502263 191.193961077 74.5975443538 192.177291852 74.9210856245C192.214099463 78.1841546709 192.250907074 81.4472237173 192.287714686 84.7102927637C188.37575908 83.4518747608 184.449287104 82.2478882139 180.508312979 81.0989099195C180.508312979 81.0989099195 180.508312979 81.0989099195 180.508312979 81.0989099195M145.734571737 73.5293042452C145.6228204 70.2561367831 145.511069063 66.9829693209 145.399317726 63.7098018588C146.420098252 63.8642490348 147.440063244 64.0225519334 148.459213913 64.1847049395C147.915475511 47.8099187047 147.371737108 31.4351324699 146.827998705 15.0603462351C145.793410595 14.9066790833 144.758425108 14.7572652535 143.723041188 14.612099907C143.611289311 11.3389166099 143.499537434 8.06573331276 143.387785556 4.79255001564C150.649304672 5.88679301077 157.895326788 7.19475300636 165.125714905 8.71835500256C165.253936378 13.6379834201 165.382157851 18.5576118376 165.510379324 23.4772402551C163.459784261 23.0199676515 161.407406784 22.5797129228 159.35325159 22.1564571299C159.306134901 20.5167577808 159.259018212 18.8770584318 159.211901523 17.2373590827C157.151924957 16.8317016127 155.090341134 16.4432105739 153.027153829 16.0718576934C153.231132646 22.6273442957 153.435111464 29.182830898 153.639090281 35.7383175003C156.710749592 36.3076280458 159.777301425 36.9137036772 162.838736001 37.5565260948C162.928717572 40.8362727282 163.018699143 44.1160193615 163.108680713 47.3957659948C160.060001555 46.7518997719 157.005458056 46.1438099191 153.945059248 45.5715711894C154.149038558 52.1270736487 154.353017869 58.6825761081 154.55699718 65.2380785675C156.583065168 65.6196858684 158.605867265 66.0164421194 160.625400822 66.4282919589C160.578284133 64.7885926099 160.531167444 63.1488932608 160.484050756 61.5091939118C162.504523407 61.9356784172 164.521891063 62.3773697681 166.536149868 62.834219995C166.664370928 67.7538325457 166.792591988 72.6734450965 166.920813047 77.5930576472C159.902825721 76.0580658825 152.840722537 74.7024496977 145.734571737 73.5293042452C145.734571737 73.5293042452 145.734571737 73.5293042452 145.734571737 73.5293042452M106.729044145 70.479919526C106.600983396 67.2424315929 106.472922647 64.0049436598 106.344861897 60.7674557266C107.396181576 60.7715364322 108.446695329 60.7797344518 109.496400412 60.7920433245C108.855276472 44.5880802935 108.214152532 28.3841172625 107.573028592 12.1801542315C106.523717262 12.1843002356 105.474021153 12.1925664163 104.423943224 12.2049487816C104.295881855 8.9674451861 104.167820486 5.72994159062 104.039759117 2.49243799515C108.027527358 2.45478898522 112.010968596 2.47680701658 115.990061837 2.55880000665C116.117393475 5.80869058002 116.244725112 9.0585811534 116.37205675 12.3084717268C115.535227428 12.2836581026 114.698151071 12.2615008192 113.860826667 12.2419978649C114.116405545 18.7366334098 114.371984423 25.2312689547 114.627563301 31.7259044996C116.718185964 31.7924800712 118.806585737 31.875497437 120.892760569 31.9749514621C120.640079744 25.4676521624 120.387398919 18.9603528626 120.134718095 12.4530535628C119.299005663 12.4162633365 118.463044286 12.3821386337 117.626833949 12.3506764842C117.49979214 9.09951832927 117.372750331 5.84836017435 117.245708522 2.59720201943C121.219045763 2.75858000953 125.187983004 2.98064599983 129.152497246 3.26370899044C129.27476961 6.52616383977 129.397041973 9.78861868909 129.519314336 13.0510735384C128.478142005 12.9678836796 127.436579731 12.8888870126 126.394627468 12.8140816674C127.014030208 29.1122703742 127.633432947 45.410459081 128.252835687 61.7086477878C129.287166313 61.7977447646 130.320687013 61.8908146729 131.353398012 61.9878489291C131.475669784 65.2502879954 131.597941556 68.5127270616 131.720213328 71.7751661279C127.797586178 71.4167932838 123.86203983 71.1153828597 119.913582825 70.8714289023C119.786541631 67.6202864758 119.659500436 64.3691440493 119.532459242 61.1180016228C120.365433894 61.162044604 121.197889786 61.2086679048 122.02982703 61.2578691434C121.777145594 54.7505541031 121.524464158 48.2432390628 121.271782722 41.7359240226C119.187394342 41.6302319766 117.100443704 41.540877143 115.010932546 41.4678813818C115.266512043 47.9625326366 115.522091539 54.4571838914 115.777671036 60.9518351461C116.612975114 60.9842227512 117.447760885 61.0192065362 118.282029466 61.0567831605C118.409360488 64.3066580116 118.53669151 67.5565328627 118.664022531 70.8064077138C114.698588531 70.638810204 110.720260709 70.5298157743 106.729044145 70.479919526C106.729044145 70.479919526 106.729044145 70.479919526 106.729044145 70.479919526M72.4557877416 57.9997756975C74.6057307914 57.7419634155 76.7526307435 57.5013441448 78.8964888597 57.2778698328C78.954590093 58.8836434218 79.0126913263 60.4894170108 79.0707925595 62.0951905998C81.2140062555 61.8914129326 83.3540036593 61.704789945 85.4907831702 61.5352672953C85.2494692244 55.1013790731 85.0081552786 48.6674908508 84.7668413328 42.2336026286C82.2122688519 42.4524593023 79.6540524564 42.6953968448 77.0921963644 42.9624538113C75.2912540585 40.5865224616 73.4910812712 38.2233247346 71.6918548893 35.8727393531C71.4261388817 28.1763721404 71.1604228741 20.4800049276 70.8947068665 12.7836377148C72.503021834 9.99288203971 74.1080426851 7.21036564178 75.7099451592 4.43597699393C78.6707818078 4.09815800746 81.6293604493 3.79150698231 84.5856690977 3.51614799611C86.3718737912 5.94862035612 88.1587500292 8.39392011997 89.9461215871 10.8521404523C90.0329790112 13.1081411116 90.1198364353 15.364141771 90.2066938594 17.6201424303C88.0934464971 17.7659898554 85.9785196678 17.9281378577 83.8619157872 18.1065684838C83.8015873008 16.4980964283 83.7412588143 14.8896243727 83.6809303279 13.2811523172C81.5647052501 13.4786402605 79.44697969 13.6922757602 77.3277572478 13.9220295399C77.5601616187 20.3451083591 77.7925659897 26.7681871784 78.0249703606 33.1912659977C80.5792906262 32.930013992 83.1304636766 32.6925680243 85.6784855637 32.4789193215C87.4733216026 34.9254263578 89.2681715062 37.3850496027 91.0628596397 39.8578565328C91.3606566938 47.5927203909 91.658453748 55.327584249 91.9562508021 63.062448107C90.3529398486 65.731949425 88.7461063719 68.4097521296 87.1355747724 71.0959633237C84.1403246748 71.3158158459 81.1380930989 71.569528947 78.1288843504 71.8572997754C76.3151864698 69.4697207627 74.501595975 67.0953504111 72.6882891144 64.7340931302C72.6107886568 62.4893206526 72.5332881992 60.2445481751 72.4557877416 57.9997756975C72.4557877416 57.9997756975 72.4557877416 57.9997756975 72.4557877416 57.9997756975M43.5958804578 77.5470607875C41.7717350897 75.3974248796 39.9500524677 73.2591168659 38.1310132751 71.1319045538C37.7829190112 53.8569414684 37.4348247473 36.581978383 37.0867304834 19.3070152975C38.7485508878 16.3246855463 40.4047510399 13.3528871669 42.0555093649 10.3913739906C45.0412940151 9.70948999959 48.0249196653 9.05738000959 51.0063783035 8.4351669909C52.7808547427 10.6518347127 54.558372636 12.8790083088 56.3387503512 15.1169155696C56.8480866702 32.3934655442 57.3574229892 49.6700155188 57.8667593082 66.9465654933C56.1968637539 69.81854328 54.5211153719 72.7012840689 52.8393368814 75.595031581C49.7651580772 76.2095421314 46.6840063143 76.86015246 43.5958804578 77.5470607875C43.5958804578 77.5470607875 43.5958804578 77.5470607875 43.5958804578 77.5470607875M44.6938124886 67.6550023381C46.8878915923 67.1720975093 49.0787625462 66.7072246759 51.2664252196 66.2603295365C50.8393276112 50.2708408583 50.4122300029 34.28135218 49.9851323946 18.2918635017C47.845475955 18.7418043381 45.7043631451 19.2074456478 43.5617964766 19.6887581235C43.9391351473 35.677506195 44.3164738179 51.6662542666 44.6938124886 67.6550023381C44.6938124886 67.6550023381 44.6938124886 67.6550023381 44.6938124886 67.6550023381M8.16989549262 87.9088154441C6.35882930672 85.9773268303 4.55263049122 84.0534941422 2.75148376051 82.1369505549C2.81254146547 64.6603921753 2.87359917043 47.1838337958 2.93465687538 29.7072754162C4.6729925559 26.5045287177 6.40332952504 23.3163964959 8.12585053554 20.1424960019C11.1354401793 19.1323219989 14.1429698271 18.1505270015 17.1484354687 17.197235995C18.8871576475 19.2349006996 20.6313384705 21.2789585916 22.3807952785 23.3297740725C22.4232796804 27.1798083502 22.4657640823 31.0298426279 22.5082484842 34.8798769056C20.3359709391 35.5357775105 18.1619166676 36.2076853995 15.9860865935 36.8955910127C15.9651776257 33.680041011 15.944268658 30.4644910092 15.9233596902 27.2489410074C13.7609666005 27.9442614011 11.5971620138 28.6548360904 9.43194638761 29.38063681C9.45864830792 45.5048525608 9.48535022824 61.6290683115 9.51205214855 77.7532840623C11.7569048927 76.9773448013 13.998551376 76.2203166801 16.2369939035 75.4821443655C16.1951759679 69.051044362 16.1533580323 62.6199443585 16.1115400968 56.1888443549C15.0078408408 56.5471841443 13.9035173739 56.9098758845 12.7985734099 57.2769209185C12.7853141933 54.056996031 12.7720549767 50.8370711434 12.7587957601 47.6171462559C16.048812157 46.5421943617 19.334035432 45.5047926431 22.6144590607 44.5049237963C22.7277508562 54.771687044 22.8410426516 65.0384502916 22.9543344471 75.3052135393C21.1945859259 78.418356826 19.4266031909 81.5465157616 17.6502016607 84.6900686705C14.4970828095 85.7245782273 11.3369829545 86.7974284297 8.16989549262 87.9088154441C8.16989549262 87.9088154441 8.16989549262 87.9088154441 8.16989549262 87.9088154441"
         style="font-style:normal;font-variant:normal;font-weight:normal;font-stretch:condensed;font-size:21.16666603px;font-family:'College Condensed';-inkscape-font-specification:'College Condensed, Condensed';text-align:start;writing-mode:lr-tb;text-anchor:start;stroke-width:0.26458332"
         id="path3347" />
    </g>
  </g>
</svg>
